<svg width="174" height="102" viewBox="0 0 174 102" fill="none" xmlns="http://www.w3.org/2000/svg">
<path d="M0.432 6.8H4.428L7.02 26.348H7.092L9.684 6.8H13.32L9.504 32H4.248L0.432 6.8ZM15.2221 6.8H19.1821V32H15.2221V6.8ZM27.7279 32.36C25.8319 32.36 24.3799 31.82 23.3719 30.74C22.3879 29.66 21.8959 28.136 21.8959 26.168V12.632C21.8959 10.664 22.3879 9.14 23.3719 8.06C24.3799 6.98 25.8319 6.44 27.7279 6.44C29.6239 6.44 31.0639 6.98 32.0479 8.06C33.0559 9.14 33.5599 10.664 33.5599 12.632V15.296H29.8159V12.38C29.8159 10.82 29.1559 10.04 27.8359 10.04C26.5159 10.04 25.8559 10.82 25.8559 12.38V26.456C25.8559 27.992 26.5159 28.76 27.8359 28.76C29.1559 28.76 29.8159 27.992 29.8159 26.456V22.604H33.5599V26.168C33.5599 28.136 33.0559 29.66 32.0479 30.74C31.0639 31.82 29.6239 32.36 27.7279 32.36ZM39.0251 10.4H34.8851V6.8H47.1251V10.4H42.9851V32H39.0251V10.4ZM54.6258 32.36C52.6818 32.36 51.1938 31.808 50.1618 30.704C49.1298 29.6 48.6138 28.04 48.6138 26.024V12.776C48.6138 10.76 49.1298 9.2 50.1618 8.096C51.1938 6.992 52.6818 6.44 54.6258 6.44C56.5698 6.44 58.0578 6.992 59.0898 8.096C60.1218 9.2 60.6378 10.76 60.6378 12.776V26.024C60.6378 28.04 60.1218 29.6 59.0898 30.704C58.0578 31.808 56.5698 32.36 54.6258 32.36ZM54.6258 28.76C55.9938 28.76 56.6778 27.932 56.6778 26.276V12.524C56.6778 10.868 55.9938 10.04 54.6258 10.04C53.2578 10.04 52.5738 10.868 52.5738 12.524V26.276C52.5738 27.932 53.2578 28.76 54.6258 28.76ZM63.3158 6.8H69.1838C71.2238 6.8 72.7118 7.28 73.6478 8.24C74.5838 9.176 75.0518 10.628 75.0518 12.596V14.144C75.0518 16.76 74.1878 18.416 72.4598 19.112V19.184C73.4198 19.472 74.0918 20.06 74.4758 20.948C74.8838 21.836 75.0878 23.024 75.0878 24.512V28.94C75.0878 29.66 75.1118 30.248 75.1598 30.704C75.2078 31.136 75.3278 31.568 75.5198 32H71.4878C71.3438 31.592 71.2478 31.208 71.1998 30.848C71.1518 30.488 71.1278 29.84 71.1278 28.904V24.296C71.1278 23.144 70.9358 22.34 70.5518 21.884C70.1918 21.428 69.5558 21.2 68.6438 21.2H67.2758V32H63.3158V6.8ZM68.7158 17.6C69.5078 17.6 70.0958 17.396 70.4798 16.988C70.8878 16.58 71.0918 15.896 71.0918 14.936V12.992C71.0918 12.08 70.9238 11.42 70.5878 11.012C70.2758 10.604 69.7718 10.4 69.0758 10.4H67.2758V17.6H68.7158ZM83.7394 3.2H86.9794V39.2H83.7394V3.2ZM98.9314 10.4H94.7914V6.8H107.031V10.4H102.891V32H98.9314V10.4ZM110.356 6.8H115.72L119.824 32H115.864L115.144 26.996V27.068H110.644L109.924 32H106.252L110.356 6.8ZM114.676 23.648L112.912 11.192H112.84L111.112 23.648H114.676ZM123.189 10.4H119.049V6.8H131.289V10.4H127.149V32H123.189V10.4ZM136.654 10.4H132.514V6.8H144.754V10.4H140.614V32H136.654V10.4ZM152.255 32.36C150.311 32.36 148.823 31.808 147.791 30.704C146.759 29.6 146.243 28.04 146.243 26.024V12.776C146.243 10.76 146.759 9.2 147.791 8.096C148.823 6.992 150.311 6.44 152.255 6.44C154.199 6.44 155.687 6.992 156.719 8.096C157.751 9.2 158.267 10.76 158.267 12.776V26.024C158.267 28.04 157.751 29.6 156.719 30.704C155.687 31.808 154.199 32.36 152.255 32.36ZM152.255 28.76C153.623 28.76 154.307 27.932 154.307 26.276V12.524C154.307 10.868 153.623 10.04 152.255 10.04C150.887 10.04 150.203 10.868 150.203 12.524V26.276C150.203 27.932 150.887 28.76 152.255 28.76ZM166.669 32.36C164.725 32.36 163.237 31.808 162.205 30.704C161.173 29.6 160.657 28.04 160.657 26.024V12.776C160.657 10.76 161.173 9.2 162.205 8.096C163.237 6.992 164.725 6.44 166.669 6.44C168.613 6.44 170.101 6.992 171.133 8.096C172.165 9.2 172.681 10.76 172.681 12.776V26.024C172.681 28.04 172.165 29.6 171.133 30.704C170.101 31.808 168.613 32.36 166.669 32.36ZM166.669 28.76C168.037 28.76 168.721 27.932 168.721 26.276V12.524C168.721 10.868 168.037 10.04 166.669 10.04C165.301 10.04 164.617 10.868 164.617 12.524V26.276C164.617 27.932 165.301 28.76 166.669 28.76Z" fill="#070603"/>
<path d="M50.0932 50.9371C48.3304 49.1852 48.3216 46.3359 50.0736 44.5732C51.8255 42.8104 54.6747 42.8016 56.4375 44.5535C58.2003 46.3055 58.209 49.1547 56.4571 50.9175C54.7052 52.6802 51.856 52.689 50.0932 50.9371Z" stroke="black" stroke-width="3"/>
<path d="M95.111 88.6286L57.1642 50.9153" stroke="black" stroke-width="3"/>
<path d="M41.1918 60.5557C39.429 58.8038 39.4202 55.9546 41.1721 54.1918C42.9241 52.429 45.7733 52.4202 47.5361 54.1722C49.2989 55.9241 49.3076 58.7733 47.5557 60.5361C45.8038 62.2989 42.9546 62.3076 41.1918 60.5557Z" stroke="black" stroke-width="3"/>
<path d="M86.2096 98.2472L48.2628 60.5339" stroke="black" stroke-width="3"/>
<path d="M112.543 44.1918C114.295 42.429 117.145 42.4202 118.907 44.1722C120.67 45.9241 120.679 48.7733 118.927 50.5361C117.175 52.2989 114.326 52.3077 112.563 50.5557C110.8 48.8038 110.791 45.9546 112.543 44.1918Z" stroke="black" stroke-width="3"/>
<path d="M74.8519 89.2096L112.565 51.2628" stroke="black" stroke-width="3"/>
<path d="M121.764 53.3558C123.516 51.593 126.365 51.5842 128.128 53.3361C129.891 55.0881 129.9 57.9373 128.148 59.7001C126.396 61.4628 123.547 61.4716 121.784 59.7197C120.021 57.9678 120.012 55.1185 121.764 53.3558Z" stroke="black" stroke-width="3"/>
<path d="M84.0727 98.3736L121.786 60.4268" stroke="black" stroke-width="3"/>
</svg>
