<svg width="116" height="81" viewBox="0 0 116 81" fill="none" xmlns="http://www.w3.org/2000/svg">
<path d="M0.288 5.2H2.952L4.68 18.232H4.728L6.456 5.2H8.88L6.336 22H2.832L0.288 5.2ZM10.1481 5.2H12.7881V22H10.1481V5.2ZM18.4853 22.24C17.2213 22.24 16.2533 21.88 15.5813 21.16C14.9253 20.44 14.5973 19.424 14.5973 18.112V9.088C14.5973 7.776 14.9253 6.76 15.5813 6.04C16.2533 5.32 17.2213 4.96 18.4853 4.96C19.7493 4.96 20.7093 5.32 21.3653 6.04C22.0373 6.76 22.3733 7.776 22.3733 9.088V10.864H19.8773V8.92C19.8773 7.88 19.4373 7.36 18.5573 7.36C17.6773 7.36 17.2373 7.88 17.2373 8.92V18.304C17.2373 19.328 17.6773 19.84 18.5573 19.84C19.4373 19.84 19.8773 19.328 19.8773 18.304V15.736H22.3733V18.112C22.3733 19.424 22.0373 20.44 21.3653 21.16C20.7093 21.88 19.7493 22.24 18.4853 22.24ZM26.0168 7.6H23.2568V5.2H31.4168V7.6H28.6568V22H26.0168V7.6ZM36.4172 22.24C35.1212 22.24 34.1292 21.872 33.4412 21.136C32.7532 20.4 32.4092 19.36 32.4092 18.016V9.184C32.4092 7.84 32.7532 6.8 33.4412 6.064C34.1292 5.328 35.1212 4.96 36.4172 4.96C37.7132 4.96 38.7052 5.328 39.3932 6.064C40.0812 6.8 40.4252 7.84 40.4252 9.184V18.016C40.4252 19.36 40.0812 20.4 39.3932 21.136C38.7052 21.872 37.7132 22.24 36.4172 22.24ZM36.4172 19.84C37.3292 19.84 37.7852 19.288 37.7852 18.184V9.016C37.7852 7.912 37.3292 7.36 36.4172 7.36C35.5052 7.36 35.0492 7.912 35.0492 9.016V18.184C35.0492 19.288 35.5052 19.84 36.4172 19.84ZM42.2106 5.2H46.1226C47.4826 5.2 48.4746 5.52 49.0986 6.16C49.7226 6.784 50.0346 7.752 50.0346 9.064V10.096C50.0346 11.84 49.4586 12.944 48.3066 13.408V13.456C48.9466 13.648 49.3946 14.04 49.6506 14.632C49.9226 15.224 50.0586 16.016 50.0586 17.008V19.96C50.0586 20.44 50.0746 20.832 50.1066 21.136C50.1386 21.424 50.2186 21.712 50.3466 22H47.6586C47.5626 21.728 47.4986 21.472 47.4666 21.232C47.4346 20.992 47.4186 20.56 47.4186 19.936V16.864C47.4186 16.096 47.2906 15.56 47.0346 15.256C46.7946 14.952 46.3706 14.8 45.7626 14.8H44.8506V22H42.2106V5.2ZM45.8106 12.4C46.3386 12.4 46.7306 12.264 46.9866 11.992C47.2586 11.72 47.3946 11.264 47.3946 10.624V9.328C47.3946 8.72 47.2826 8.28 47.0586 8.008C46.8506 7.736 46.5146 7.6 46.0506 7.6H44.8506V12.4H45.8106ZM55.8263 2.8H57.9863V26.8H55.8263V2.8ZM65.9543 7.6H63.1943V5.2H71.3543V7.6H68.5943V22H65.9543V7.6ZM73.5709 5.2H77.1469L79.8829 22H77.2429L76.7629 18.664V18.712H73.7629L73.2829 22H70.8349L73.5709 5.2ZM76.4509 16.432L75.2749 8.128H75.2269L74.0749 16.432H76.4509ZM82.1261 7.6H79.3661V5.2H87.5261V7.6H84.7661V22H82.1261V7.6ZM91.1027 7.6H88.3427V5.2H96.5027V7.6H93.7427V22H91.1027V7.6ZM101.503 22.24C100.207 22.24 99.2151 21.872 98.5271 21.136C97.8391 20.4 97.4951 19.36 97.4951 18.016V9.184C97.4951 7.84 97.8391 6.8 98.5271 6.064C99.2151 5.328 100.207 4.96 101.503 4.96C102.799 4.96 103.791 5.328 104.479 6.064C105.167 6.8 105.511 7.84 105.511 9.184V18.016C105.511 19.36 105.167 20.4 104.479 21.136C103.791 21.872 102.799 22.24 101.503 22.24ZM101.503 19.84C102.415 19.84 102.871 19.288 102.871 18.184V9.016C102.871 7.912 102.415 7.36 101.503 7.36C100.591 7.36 100.135 7.912 100.135 9.016V18.184C100.135 19.288 100.591 19.84 101.503 19.84ZM111.113 22.24C109.817 22.24 108.825 21.872 108.137 21.136C107.449 20.4 107.104 19.36 107.104 18.016V9.184C107.104 7.84 107.449 6.8 108.137 6.064C108.825 5.328 109.817 4.96 111.113 4.96C112.409 4.96 113.401 5.328 114.089 6.064C114.777 6.8 115.121 7.84 115.121 9.184V18.016C115.121 19.36 114.777 20.4 114.089 21.136C113.401 21.872 112.409 22.24 111.113 22.24ZM111.113 19.84C112.025 19.84 112.48 19.288 112.48 18.184V9.016C112.48 7.912 112.025 7.36 111.113 7.36C110.201 7.36 109.745 7.912 109.745 9.016V18.184C109.745 19.288 110.201 19.84 111.113 19.84Z" fill="white"/>
<path d="M28.7472 40.0094C27.3264 38.5973 27.3193 36.3008 28.7314 34.88C30.1434 33.4592 32.4399 33.4521 33.8607 34.8642C35.2815 36.2762 35.2886 38.5727 33.8765 39.9935C32.4645 41.4143 30.168 41.4214 28.7472 40.0094Z" stroke="white" stroke-width="3"/>
<path d="M65.0318 70.3889L34.4465 39.9918" stroke="white" stroke-width="3"/>
<path d="M21.5726 47.762C20.1518 46.35 20.1447 44.0535 21.5568 42.6327C22.9688 41.2119 25.2653 41.2048 26.6861 42.6168C28.1069 44.0289 28.114 46.3254 26.702 47.7462C25.2899 49.167 22.9934 49.1741 21.5726 47.762Z" stroke="white" stroke-width="3"/>
<path d="M57.8572 78.1416L27.2719 47.7444" stroke="white" stroke-width="3"/>
<path d="M79.0824 34.5726C80.4945 33.1518 82.791 33.1447 84.2118 34.5568C85.6326 35.9688 85.6397 38.2653 84.2276 39.6861C82.8155 41.1069 80.519 41.114 79.0982 39.702C77.6774 38.2899 77.6704 35.9934 79.0824 34.5726Z" stroke="white" stroke-width="3"/>
<path d="M48.7029 70.8572L79.1 40.2719" stroke="white" stroke-width="3"/>
<path d="M86.5144 41.9588C87.9264 40.538 90.2229 40.5309 91.6437 41.943C93.0645 43.355 93.0716 45.6515 91.6596 47.0723C90.2475 48.4931 87.951 48.5002 86.5302 47.0882C85.1094 45.6761 85.1023 43.3796 86.5144 41.9588Z" stroke="white" stroke-width="3"/>
<path d="M56.1348 78.2434L86.532 47.6581" stroke="white" stroke-width="3"/>
</svg>
