<svg id="Camada_1" data-name="Camada 1" xmlns="http://www.w3.org/2000/svg" viewBox="0 0 53.71 33.74"><defs><style>.cls-1{fill:none;stroke:#fff;stroke-width:2px;}</style></defs><title>marca-white</title><path class="cls-1" d="M30.11,23.3a2.6,2.6,0,1,1,3.67,0A2.6,2.6,0,0,1,30.11,23.3Z" transform="translate(-23.2 -17.64)"/><path class="cls-1" d="M56.09,45.05,34.19,23.28" transform="translate(-23.2 -17.64)"/><path class="cls-1" d="M25,28.85a2.6,2.6,0,1,1,3.67,0A2.6,2.6,0,0,1,25,28.85Z" transform="translate(-23.2 -17.64)"/><path class="cls-1" d="M51,50.6,29.05,28.83" transform="translate(-23.2 -17.64)"/><path class="cls-1" d="M66.15,19.4a2.6,2.6,0,1,1,0,3.68A2.6,2.6,0,0,1,66.15,19.4Z" transform="translate(-23.2 -17.64)"/><path class="cls-1" d="M44.39,45.38l21.77-21.9" transform="translate(-23.2 -17.64)"/><path class="cls-1" d="M71.47,24.69a2.6,2.6,0,1,1,0,3.67A2.59,2.59,0,0,1,71.47,24.69Z" transform="translate(-23.2 -17.64)"/><path class="cls-1" d="M49.72,50.67l21.76-21.9" transform="translate(-23.2 -17.64)"/></svg>